<svg xmlns="http://www.w3.org/2000/svg" width="26" height="32" viewBox="0 0 26 32"><g fill="none" fill-rule="evenodd"><path fill="#5ACC5A" d="M10.9959732,0.0214765101 C4.9230604,0.0214765101 0,4.94453691 0,11.0174497 L0,31.2500403 C0,31.8979866 0.784536913,32.2220671 1.24284564,31.7639732 L7.21610738,25.7932886 L14.7758389,25.7932886 C20.8487517,25.7932886 25.7718121,20.8702282 25.7718121,14.7973154 L25.7718121,0.0214765101 L10.9959732,0.0214765101"/><polyline fill="#0EA84C" points="7.216 25.793 1.718 25.793 5.153 27.855 7.216 25.793"/><polyline fill="#2CB757" points="25.772 .021 10.996 .021 10.996 14.797 25.772 .021"/><path fill="#0EA84C" d="M10.9959732,0.0214765101 C4.9230604,0.0214765101 0,4.94453691 0,11.0174497 L0,25.7932886 L10.9959732,14.7973154 L10.9959732,0.0214765101"/><polyline fill="#75DD66" points="25.772 .021 10.996 14.797 25.772 14.797 25.772 .021"/><path fill="#5ACC5A" d="M10.9959732,14.7973154 L0,25.7932886 L14.7758389,25.7932886 C20.8487517,25.7932886 25.7718121,20.8702282 25.7718121,14.7973154 L10.9959732,14.7973154"/></g></svg>